# xmcd
#
# Track frame offsets:
#	150
#	21006
#	41402
#	64535
#	83665
#	103379
#	120742
#	138912
#	161780
#	180458
#	200242
#	219797
#	243014
#
# Disc length: 3570 seconds
#
# Revision: 1
# Processed by: cddbd v1.5.1PL0 Copyright (c) Steve Scherf et al.
# Submitted via: CDex 1.50Beta5
#
DISCID=aa0df00d
DTITLE=ZARD - SINGLE SELLECTION DISC-1
DYEAR=1900
DGENRE=
TTITLE0=Good-bye My Loneliness
TTITLE1=MIND GAMES
TTITLE2=もう探さない
TTITLE3=My Baby Grand 〜ぬくもりが欲しくて〜
TTITLE4=IN MY ARMS TONIGHT
TTITLE5=永遠
TTITLE6=君がいない
TTITLE7=Don’t you see!
TTITLE8=きっと忘れない
TTITLE9=マイ フレンド
TTITLE10=この愛に泳ぎ疲れても
TTITLE11=さよならは今もこの胸にいます
TTITLE12=Just believe in love
EXTD=
EXTT0=
EXTT1=
EXTT2=
EXTT3=
EXTT4=
EXTT5=
EXTT6=
EXTT7=
EXTT8=
EXTT9=
EXTT10=
EXTT11=
EXTT12=
PLAYORDER=
